<svg t="1660989238783" class="icon" viewBox="0 0 1024 1024" version="1.1" xmlns="http://www.w3.org/2000/svg" p-id="16159" width="48" height="48"><path d="M115.7 115.6v394.8h394.8z" fill="#5CCFEA" p-id="16160"></path><path d="M510.5 527.8H115.7c-9.6 0-17.4-7.8-17.4-17.4V115.6c0-7 4.2-13.4 10.8-16.1 6.5-2.7 14-1.2 19 3.8l394.8 394.8c5 5 6.5 12.5 3.8 19-2.8 6.5-9.2 10.7-16.2 10.7zM133.1 493h335.3L133.1 157.7V493z" fill="#4C4848" p-id="16161"></path><path d="M115.7 905.2h394.8V510.4z" fill="#5CCFEA" p-id="16162"></path><path d="M510.5 922.7H115.7c-7 0-13.4-4.2-16.1-10.8-2.7-6.5-1.2-14 3.8-19l394.8-394.8c5-5 12.5-6.5 19-3.8s10.8 9.1 10.8 16.1v394.8c-0.1 9.7-7.9 17.5-17.5 17.5z m-352.7-34.9h335.3V552.5L157.8 887.8z" fill="#4C4848" p-id="16163"></path><path d="M905.3 905.2V510.4H510.5z" fill="#5CCFEA" p-id="16164"></path><path d="M905.3 922.7c-4.5 0-9-1.8-12.3-5.1L498.2 522.7c-5-5-6.5-12.5-3.8-19s9.1-10.8 16.1-10.8h394.8c9.6 0 17.4 7.8 17.4 17.4v394.8c0 7-4.2 13.4-10.8 16.1-2.1 1-4.3 1.5-6.6 1.5zM552.6 527.8l335.3 335.3V527.8H552.6z" fill="#4C4848" p-id="16165"></path><path d="M905.3 115.6H510.5v394.8z" fill="#5CCFEA" p-id="16166"></path><path d="M510.5 527.8c-2.2 0-4.5-0.4-6.7-1.3-6.5-2.7-10.8-9.1-10.8-16.1V115.6c0-9.6 7.8-17.4 17.4-17.4h394.8c7 0 13.4 4.2 16.1 10.8 2.7 6.5 1.2 14-3.8 19L522.8 522.7c-3.3 3.4-7.8 5.1-12.3 5.1zM527.9 133v335.3L863.3 133H527.9z" fill="#4C4848" p-id="16167"></path><path d="M510.5 115.6L313.1 313l197.4 197.4z" fill="#80D4EE" p-id="16168"></path><path d="M510.5 527.8c-4.5 0-9-1.8-12.3-5.1L300.8 325.3c-6.8-6.8-6.8-17.8 0-24.6l197.4-197.4c5-5 12.5-6.5 19-3.8s10.8 9.1 10.8 16.1v394.8c0 7-4.2 13.4-10.8 16.1-2.2 0.9-4.5 1.3-6.7 1.3zM337.7 313L493 468.3V157.7L337.7 313z" fill="#4C4848" p-id="16169"></path><path d="M115.7 510.4l197.4 197.4 197.4-197.4z" fill="#80D4EE" p-id="16170"></path><path d="M313.1 725.2c-4.5 0-8.9-1.7-12.3-5.1L103.4 522.7c-5-5-6.5-12.5-3.8-19s9.1-10.8 16.1-10.8h394.8c7 0 13.4 4.2 16.1 10.8 2.7 6.5 1.2 14-3.8 19L325.4 720.1c-3.4 3.4-7.8 5.1-12.3 5.1zM157.8 527.8l155.3 155.3 155.3-155.3H157.8z" fill="#4C4848" p-id="16171"></path><path d="M510.5 905.2l197.4-197.4-197.4-197.4z" fill="#80D4EE" p-id="16172"></path><path d="M510.5 922.7c-2.2 0-4.5-0.4-6.7-1.3-6.5-2.7-10.8-9.1-10.8-16.1V510.4c0-7 4.2-13.4 10.8-16.1 6.5-2.7 14-1.2 19 3.8l197.4 197.4c3.3 3.3 5.1 7.7 5.1 12.3 0 4.6-1.8 9.1-5.1 12.3L522.8 917.6c-3.3 3.3-7.8 5.1-12.3 5.1z m17.4-370.2v310.7l155.3-155.3-155.3-155.4z" fill="#4C4848" p-id="16173"></path><path d="M905.3 510.4L707.9 313 510.5 510.4z" fill="#80D4EE" p-id="16174"></path><path d="M905.3 527.8H510.5c-7 0-13.4-4.2-16.1-10.8-2.7-6.5-1.2-14 3.8-19l197.4-197.4c6.8-6.8 17.8-6.8 24.6 0L917.6 498c5 5 6.5 12.5 3.8 19-2.7 6.6-9 10.8-16.1 10.8zM552.6 493h310.7L707.9 337.6 552.6 493z" fill="#4C4848" p-id="16175"></path><path d="M510.5 510.4m-70.3 0a70.3 70.3 0 1 0 140.6 0 70.3 70.3 0 1 0-140.6 0Z" fill="#E45544" p-id="16176"></path><path d="M510.5 598.2c-48.4 0-87.8-39.4-87.8-87.8s39.4-87.8 87.8-87.8 87.8 39.4 87.8 87.8-39.4 87.8-87.8 87.8z m0-140.7c-29.2 0-52.9 23.7-52.9 52.9s23.7 52.9 52.9 52.9 52.9-23.7 52.9-52.9-23.7-52.9-52.9-52.9z" fill="#4C4848" p-id="16177"></path></svg>
